<?xml version="1.0" encoding="UTF-8"?>
<svg id="Layer_2" data-name="Layer 2" xmlns="http://www.w3.org/2000/svg" viewBox="0 0 626.68 345.66">
  <defs>
    <style>
      .cls-1 {
        font-size: 26px;
      }

      .cls-1, .cls-2 {
        fill: #f3eb8b;
        font-family: Berringer-Aged, Berringer;
      }

      .cls-3 {
        letter-spacing: .07em;
      }

      .cls-4 {
        letter-spacing: .06em;
      }

      .cls-5 {
        letter-spacing: .06em;
      }

      .cls-2 {
        font-size: 37px;
      }

      .cls-6 {
        letter-spacing: .08em;
      }

      .cls-7 {
        letter-spacing: .08em;
      }
    </style>
  </defs>
  <g id="Layer_1-2" data-name="Layer 1">
    <text class="cls-2" transform="translate(62.1 226.44) rotate(-76.67)"><tspan x="0" y="0">F</tspan></text>
    <text class="cls-2" transform="translate(66.22 209.16) rotate(-71.61)"><tspan x="0" y="0">a</tspan></text>
    <text class="cls-2" transform="translate(73.89 186.87) rotate(-65.55)"><tspan x="0" y="0">r</tspan></text>
    <text class="cls-2" transform="translate(83.69 165.49) rotate(-58.83)"><tspan x="0" y="0">m</tspan></text>
    <text class="cls-2" transform="translate(99.88 139.89) rotate(-53.44)"><tspan x="0" y="0"> </tspan></text>
    <text class="cls-2" transform="translate(108.25 128.71) rotate(-49.35)"><tspan x="0" y="0">F</tspan></text>
    <text class="cls-2" transform="translate(121.61 113.35) rotate(-44.22)"><tspan x="0" y="0">r</tspan></text>
    <text class="cls-2" transform="translate(138.49 97.28) rotate(-39.3)"><tspan x="0" y="0">e</tspan></text>
    <text class="cls-2" transform="translate(154.11 84.69) rotate(-34.72)"><tspan x="0" y="0">s</tspan></text>
    <text class="cls-2" transform="translate(171.85 72.59) rotate(-29.79)"><tspan x="0" y="0">h</tspan></text>
    <text class="cls-2" transform="translate(192.6 61.1) rotate(-25.73)"><tspan x="0" y="0"> </tspan></text>
    <text class="cls-2" transform="translate(205.18 55.03) rotate(-21.73)"><tspan x="0" y="0">R</tspan></text>
    <text class="cls-2" transform="translate(226.68 46.79) rotate(-17.88)"><tspan x="0" y="0">i</tspan></text>
    <text class="cls-2" transform="translate(240.31 42.37) rotate(-13.78)"><tspan x="0" y="0">g</tspan></text>
    <text class="cls-2" transform="translate(264.58 36.65) rotate(-8.79)"><tspan x="0" y="0">h</tspan></text>
    <text class="cls-2" transform="translate(287.99 33.25) rotate(-4.12)"><tspan x="0" y="0">t</tspan></text>
    <text class="cls-2" transform="translate(310.54 31.95) rotate(-.85)"><tspan x="0" y="0"> </tspan></text>
    <text class="cls-2" transform="translate(324.58 31.82) rotate(3.18)"><tspan x="0" y="0">t</tspan></text>
    <text class="cls-2" transform="translate(344.88 33.02) rotate(7.36)"><tspan x="0" y="0">o</tspan></text>
    <text class="cls-2" transform="translate(367.97 36.32) rotate(11.17)"><tspan x="0" y="0"> </tspan></text>
    <text class="cls-2" transform="translate(381.71 39.06) rotate(14.88)"><tspan x="0" y="0">Y</tspan></text>
    <text class="cls-2" transform="translate(401.09 44.29) rotate(19.22)"><tspan x="0" y="0">o</tspan></text>
    <text class="cls-2" transform="translate(422.94 52.11) rotate(24.15)"><tspan x="0" y="0">u</tspan></text>
    <text class="cls-2" transform="translate(444.29 61.9) rotate(29.21)"><tspan x="0" y="0">r</tspan></text>
    <text class="cls-2" transform="translate(464.87 73.8) rotate(33.32)"><tspan x="0" y="0"> </tspan></text>
    <text class="cls-2" transform="translate(476.56 81.48) rotate(37.47)"><tspan x="0" y="0">D</tspan></text>
    <text class="cls-2" transform="translate(495.05 95.92) rotate(42.73)"><tspan x="0" y="0">o</tspan></text>
    <text class="cls-2" transform="translate(511.91 111.78) rotate(48.08)"><tspan x="0" y="0">o</tspan></text>
    <text class="cls-2" transform="translate(527.23 129.15) rotate(53.64)"><tspan x="0" y="0">r</tspan></text>
    <text class="cls-2" transform="translate(540.63 147.73) rotate(58.96)"><tspan x="0" y="0">s</tspan></text>
    <text class="cls-2" transform="translate(551.17 165.54) rotate(64.25)"><tspan x="0" y="0">t</tspan></text>
    <text class="cls-2" transform="translate(560.66 185.83) rotate(69.71)"><tspan x="0" y="0">e</tspan></text>
    <text class="cls-2" transform="translate(567.56 204.95) rotate(75.33)"><tspan x="0" y="0">p</tspan></text>
    <text class="cls-1" transform="translate(0 335.26)"><tspan class="cls-4" x="0" y="0">2</tspan><tspan class="cls-6" x="14.14" y="0">5 L</tspan><tspan class="cls-3" x="50.26" y="0">B</tspan><tspan class="cls-7" x="66.43" y="0">S</tspan></text>
    <text class="cls-1" transform="translate(575.53 333.26)"><tspan class="cls-6" x="0" y="0">$</tspan><tspan class="cls-5" x="13.94" y="0">2</tspan><tspan class="cls-6" x="28.08" y="0">5 </tspan></text>
  </g>
</svg>